# xmcd
#
# Track frame offsets: 
#        150
#        18207
#        29152
#        46782
#        59805
#        80435
#        90352
#        106397
#        125402
#        139412
#
# Disc length: 2050 seconds
#
# Revision: 2
# Processed by: cddbd v1.5.1PL2 Copyright (c) Steve Scherf et al.
# Submitted via: ExactAudioCopy v0.95b3
#
DISCID=8408000a
DTITLE=Marty Brown - High and Dry
DYEAR=1991
DGENRE=Country
TTITLE0=High and Dry
TTITLE1=Your Sugar Daddy's Long Gone
TTITLE2=Indian Summer Blues
TTITLE3=Every Now and Then
TTITLE4=I'll Climb any Mountain
TTITLE5=Don't Worry Baby
TTITLE6=Honky Tonk Special
TTITLE7=Wildest Dreams
TTITLE8=Ole King Kong
TTITLE9=Nobody Knows
EXTD=
EXTT0=
EXTT1=
EXTT2=
EXTT3=
EXTT4=
EXTT5=
EXTT6=
EXTT7=
EXTT8=
EXTT9=
PLAYORDER=
